<svg xmlns="http://www.w3.org/2000/svg" width="480" height="480" viewBox="0 0 480 480">
  <defs>
    <radialGradient id="bg" cx="50%" cy="32%" r="75%">
      <stop offset="0%" stop-color="#d3f7f2"/>
      <stop offset="55%" stop-color="#a8ecdf"/>
      <stop offset="100%" stop-color="#7adfcc"/>
    </radialGradient>
    <linearGradient id="body" x1="0%" y1="0%" x2="100%" y2="0%">
      <stop offset="0%" stop-color="#06b6a8"/>
      <stop offset="55%" stop-color="#3dd9c6"/>
      <stop offset="100%" stop-color="#048577"/>
    </linearGradient>
    <linearGradient id="cap" x1="0%" y1="0%" x2="100%" y2="0%">
      <stop offset="0%" stop-color="#7c3aed"/>
      <stop offset="100%" stop-color="#3a1b7a"/>
    </linearGradient>
  </defs>
  <rect width="480" height="480" fill="url(#bg)"/>
  <ellipse cx="240" cy="400" rx="120" ry="18" fill="#2a1440" opacity="0.16"/>
  <rect x="212" y="120" width="56" height="20" rx="5" fill="url(#cap)"/>
  <path d="M204 140 h72 a10 10 0 0 1 10 10 v190 a16 16 0 0 1 -16 16 h-60 a16 16 0 0 1 -16 -16 v-190 a10 10 0 0 1 10 -10 z" fill="url(#body)"/>
  <path d="M214 158 q4 100 -2 180" stroke="#ffffff" stroke-width="10" stroke-linecap="round" opacity="0.35" fill="none"/>
  <rect x="196" y="240" width="88" height="70" rx="8" fill="#ffffff" opacity="0.92"/>
  <text x="240" y="268" text-anchor="middle" font-family="Georgia, 'Playfair Display', serif" font-size="16" fill="#048577" font-weight="700">Nail Strengthener</text>
  <text x="240" y="290" text-anchor="middle" font-family="Georgia, 'Playfair Display', serif" font-size="16" fill="#048577" font-weight="700">Base Coat</text>
</svg>
